<?xml version="1.0" encoding="UTF-8" standalone="no"?>
<svg
   xmlns:dc="http://purl.org/dc/elements/1.1/"
   xmlns:cc="http://creativecommons.org/ns#"
   xmlns:rdf="http://www.w3.org/1999/02/22-rdf-syntax-ns#"
   xmlns:svg="http://www.w3.org/2000/svg"
   xmlns="http://www.w3.org/2000/svg"
   xmlns:sodipodi="http://sodipodi.sourceforge.net/DTD/sodipodi-0.dtd"
   xmlns:inkscape="http://www.inkscape.org/namespaces/inkscape"
   enable-background="new 0 0 24 24"
   height="24px"
   id="Layer_1"
   version="1.1"
   viewBox="0 0 24 24"
   width="24px"
   xml:space="preserve"
   inkscape:version="0.48.5 r10040"
   sodipodi:docname="1447010213_volume-24.svg"
   inkscape:export-filename="/home/dkandrov/work/game/15/sound_off.png"
   inkscape:export-xdpi="180"
   inkscape:export-ydpi="180"><metadata
     id="metadata3047"><rdf:RDF><cc:Work
         rdf:about=""><dc:format>image/svg+xml</dc:format><dc:type
           rdf:resource="http://purl.org/dc/dcmitype/StillImage" /><dc:title></dc:title></cc:Work></rdf:RDF></metadata><defs
     id="defs3045" /><sodipodi:namedview
     pagecolor="#ffffff"
     bordercolor="#666666"
     borderopacity="1"
     objecttolerance="10"
     gridtolerance="10"
     guidetolerance="10"
     inkscape:pageopacity="0"
     inkscape:pageshadow="2"
     inkscape:window-width="1920"
     inkscape:window-height="1058"
     id="namedview3043"
     showgrid="false"
     inkscape:zoom="22.627417"
     inkscape:cx="9.3856677"
     inkscape:cy="11.045968"
     inkscape:window-x="1920"
     inkscape:window-y="0"
     inkscape:window-maximized="1"
     inkscape:current-layer="Layer_1" /><path
     clip-rule="evenodd"
     d="M 19.779,3.349 18.668,5.013 C 20.699,6.663 22,9.179 22,12 c 0,2.822 -1.301,5.338 -3.332,6.988 l 1.111,1.663 C 22.345,18.639 24,15.516 24,12 24,8.485 22.346,5.362 19.779,3.349 z m -2.229,3.338 -1.122,1.68 c 0.968,0.913 1.58,2.198 1.58,3.634 0,1.436 -0.612,2.722 -1.58,3.635 l 1.122,1.68 C 19.047,16.03 20,14.128 20,12 20,9.873 19.048,7.971 17.55,6.687 z M 12,1 c -1.177,0 -1.533,0.684 -1.533,0.684 0,0 -3.061,3.363 -5.169,4.847 C 4.91,6.778 4.484,7 3.73,7 H 2 C 0.896,7 0,7.896 0,9 v 6 c 0,1.104 0.896,2 2,2 h 1.73 c 0.754,0 1.18,0.222 1.567,0.469 2.108,1.484 5.169,4.848 5.169,4.848 0,0 0.357,0.683 1.534,0.683 1.104,0 2,-0.895 2,-2 V 3 C 14,1.895 13.104,1 12,1 z"
     id="path3041"
     inkscape:connector-curvature="0"
     style="fill-rule:evenodd" /><rect
     style="fill:#ffffff;fill-opacity:1;fill-rule:nonzero;stroke:none"
     id="rect3052"
     width="8.9714174"
     height="21.124815"
     x="15.026019"
     y="1.2841946"
     rx="4.6428485"
     ry="5.9747372" /><path
     style="fill:none;stroke:#000000;stroke-width:1.45397747;stroke-linecap:round;stroke-linejoin:round;stroke-miterlimit:4;stroke-opacity:1;stroke-dasharray:none"
     d="m 15.621726,8.1554744 7.536935,7.7579066 -3.779023,-3.889819 -3.546794,3.650779 7.24137,-7.4536741"
     id="path3054"
     inkscape:connector-curvature="0"
     inkscape:transform-center-x="4.2461742"
     inkscape:transform-center-y="-0.39115473"
     inkscape:export-xdpi="180"
     inkscape:export-ydpi="180" /></svg>